<mxfile host="draw.dax.gay" modified="2024-05-18T14:30:36.867Z" agent="Mozilla/5.0 (X11; Linux x86_64; rv:125.0) Gecko/20100101 Firefox/125.0" etag="Bj5bOwvY21vzjdZm0p81" version="21.6.6" type="device">
  <diagram name="Page-1" id="uaizHGq0VrqENfQuEcXQ">
    <mxGraphModel dx="2912" dy="1117" grid="1" gridSize="10" guides="1" tooltips="1" connect="1" arrows="1" fold="1" page="1" pageScale="1" pageWidth="850" pageHeight="1100" math="0" shadow="0">
      <root>
        <mxCell id="0" />
        <mxCell id="1" parent="0" />
        <mxCell id="d8GLqu3ckTgXkkGwZRYU-6" style="edgeStyle=orthogonalEdgeStyle;rounded=0;orthogonalLoop=1;jettySize=auto;html=1;exitX=0.5;exitY=1;exitDx=0;exitDy=0;entryX=1;entryY=0.5;entryDx=0;entryDy=0;" edge="1" parent="1" source="d8GLqu3ckTgXkkGwZRYU-2" target="d8GLqu3ckTgXkkGwZRYU-3">
          <mxGeometry relative="1" as="geometry" />
        </mxCell>
        <mxCell id="d8GLqu3ckTgXkkGwZRYU-7" style="edgeStyle=orthogonalEdgeStyle;rounded=0;orthogonalLoop=1;jettySize=auto;html=1;exitX=0.5;exitY=1;exitDx=0;exitDy=0;entryX=0;entryY=0.5;entryDx=0;entryDy=0;" edge="1" parent="1" source="d8GLqu3ckTgXkkGwZRYU-2" target="d8GLqu3ckTgXkkGwZRYU-4">
          <mxGeometry relative="1" as="geometry" />
        </mxCell>
        <mxCell id="d8GLqu3ckTgXkkGwZRYU-9" style="edgeStyle=orthogonalEdgeStyle;rounded=0;orthogonalLoop=1;jettySize=auto;html=1;exitX=0.5;exitY=1;exitDx=0;exitDy=0;entryX=0.5;entryY=0;entryDx=0;entryDy=0;" edge="1" parent="1" source="d8GLqu3ckTgXkkGwZRYU-2" target="d8GLqu3ckTgXkkGwZRYU-5">
          <mxGeometry relative="1" as="geometry" />
        </mxCell>
        <mxCell id="d8GLqu3ckTgXkkGwZRYU-2" value="Applications/Interfaces" style="rounded=0;whiteSpace=wrap;html=1;" vertex="1" parent="1">
          <mxGeometry x="20" y="10" width="120" height="60" as="geometry" />
        </mxCell>
        <mxCell id="d8GLqu3ckTgXkkGwZRYU-3" value="Web client" style="rounded=0;whiteSpace=wrap;html=1;" vertex="1" parent="1">
          <mxGeometry x="-80" y="200" width="120" height="60" as="geometry" />
        </mxCell>
        <mxCell id="d8GLqu3ckTgXkkGwZRYU-4" value="Desktop Client" style="rounded=0;whiteSpace=wrap;html=1;dashed=1;" vertex="1" parent="1">
          <mxGeometry x="120" y="200" width="120" height="60" as="geometry" />
        </mxCell>
        <mxCell id="d8GLqu3ckTgXkkGwZRYU-5" value="External API" style="rounded=0;whiteSpace=wrap;html=1;" vertex="1" parent="1">
          <mxGeometry x="-250" y="110" width="120" height="60" as="geometry" />
        </mxCell>
        <mxCell id="d8GLqu3ckTgXkkGwZRYU-10" value="Unified UI" style="rounded=0;whiteSpace=wrap;html=1;" vertex="1" parent="1">
          <mxGeometry x="20" y="110" width="120" height="60" as="geometry" />
        </mxCell>
        <mxCell id="d8GLqu3ckTgXkkGwZRYU-22" style="edgeStyle=orthogonalEdgeStyle;rounded=0;orthogonalLoop=1;jettySize=auto;html=1;exitX=0.5;exitY=1;exitDx=0;exitDy=0;entryX=0;entryY=0.5;entryDx=0;entryDy=0;" edge="1" parent="1" source="d8GLqu3ckTgXkkGwZRYU-11" target="d8GLqu3ckTgXkkGwZRYU-12">
          <mxGeometry relative="1" as="geometry" />
        </mxCell>
        <mxCell id="d8GLqu3ckTgXkkGwZRYU-23" style="edgeStyle=orthogonalEdgeStyle;rounded=0;orthogonalLoop=1;jettySize=auto;html=1;exitX=0.5;exitY=1;exitDx=0;exitDy=0;entryX=0;entryY=0.5;entryDx=0;entryDy=0;" edge="1" parent="1" source="d8GLqu3ckTgXkkGwZRYU-11" target="d8GLqu3ckTgXkkGwZRYU-13">
          <mxGeometry relative="1" as="geometry" />
        </mxCell>
        <mxCell id="d8GLqu3ckTgXkkGwZRYU-24" style="edgeStyle=orthogonalEdgeStyle;rounded=0;orthogonalLoop=1;jettySize=auto;html=1;exitX=0.5;exitY=1;exitDx=0;exitDy=0;entryX=0;entryY=0.5;entryDx=0;entryDy=0;" edge="1" parent="1" source="d8GLqu3ckTgXkkGwZRYU-11" target="d8GLqu3ckTgXkkGwZRYU-14">
          <mxGeometry relative="1" as="geometry" />
        </mxCell>
        <mxCell id="d8GLqu3ckTgXkkGwZRYU-25" style="edgeStyle=orthogonalEdgeStyle;rounded=0;orthogonalLoop=1;jettySize=auto;html=1;exitX=0.5;exitY=1;exitDx=0;exitDy=0;entryX=0;entryY=0.5;entryDx=0;entryDy=0;" edge="1" parent="1" source="d8GLqu3ckTgXkkGwZRYU-11" target="d8GLqu3ckTgXkkGwZRYU-15">
          <mxGeometry relative="1" as="geometry" />
        </mxCell>
        <mxCell id="d8GLqu3ckTgXkkGwZRYU-26" style="edgeStyle=orthogonalEdgeStyle;rounded=0;orthogonalLoop=1;jettySize=auto;html=1;exitX=0.5;exitY=1;exitDx=0;exitDy=0;entryX=0;entryY=0.5;entryDx=0;entryDy=0;" edge="1" parent="1" source="d8GLqu3ckTgXkkGwZRYU-11" target="d8GLqu3ckTgXkkGwZRYU-16">
          <mxGeometry relative="1" as="geometry" />
        </mxCell>
        <mxCell id="d8GLqu3ckTgXkkGwZRYU-27" style="edgeStyle=orthogonalEdgeStyle;rounded=0;orthogonalLoop=1;jettySize=auto;html=1;exitX=0.5;exitY=1;exitDx=0;exitDy=0;entryX=0;entryY=0.5;entryDx=0;entryDy=0;" edge="1" parent="1" source="d8GLqu3ckTgXkkGwZRYU-11" target="d8GLqu3ckTgXkkGwZRYU-21">
          <mxGeometry relative="1" as="geometry" />
        </mxCell>
        <mxCell id="d8GLqu3ckTgXkkGwZRYU-11" value="RPG Generalization" style="rounded=0;whiteSpace=wrap;html=1;" vertex="1" parent="1">
          <mxGeometry x="540" y="10" width="120" height="60" as="geometry" />
        </mxCell>
        <mxCell id="d8GLqu3ckTgXkkGwZRYU-12" value="Campaigns/Groups" style="rounded=0;whiteSpace=wrap;html=1;" vertex="1" parent="1">
          <mxGeometry x="670" y="90" width="120" height="60" as="geometry" />
        </mxCell>
        <mxCell id="d8GLqu3ckTgXkkGwZRYU-13" value="Characters" style="rounded=0;whiteSpace=wrap;html=1;" vertex="1" parent="1">
          <mxGeometry x="670" y="190" width="120" height="60" as="geometry" />
        </mxCell>
        <mxCell id="d8GLqu3ckTgXkkGwZRYU-14" value="NPCs/Statblocks" style="rounded=0;whiteSpace=wrap;html=1;" vertex="1" parent="1">
          <mxGeometry x="670" y="290" width="120" height="60" as="geometry" />
        </mxCell>
        <mxCell id="d8GLqu3ckTgXkkGwZRYU-19" style="edgeStyle=orthogonalEdgeStyle;rounded=0;orthogonalLoop=1;jettySize=auto;html=1;exitX=1;exitY=0.5;exitDx=0;exitDy=0;entryX=0;entryY=0.5;entryDx=0;entryDy=0;" edge="1" parent="1" source="d8GLqu3ckTgXkkGwZRYU-15" target="d8GLqu3ckTgXkkGwZRYU-17">
          <mxGeometry relative="1" as="geometry" />
        </mxCell>
        <mxCell id="d8GLqu3ckTgXkkGwZRYU-20" style="edgeStyle=orthogonalEdgeStyle;rounded=0;orthogonalLoop=1;jettySize=auto;html=1;exitX=1;exitY=0.5;exitDx=0;exitDy=0;entryX=0;entryY=0.5;entryDx=0;entryDy=0;" edge="1" parent="1" source="d8GLqu3ckTgXkkGwZRYU-15" target="d8GLqu3ckTgXkkGwZRYU-18">
          <mxGeometry relative="1" as="geometry" />
        </mxCell>
        <mxCell id="d8GLqu3ckTgXkkGwZRYU-15" value="Articles" style="rounded=0;whiteSpace=wrap;html=1;" vertex="1" parent="1">
          <mxGeometry x="670" y="390" width="120" height="60" as="geometry" />
        </mxCell>
        <mxCell id="d8GLqu3ckTgXkkGwZRYU-16" value="RNG Types" style="rounded=0;whiteSpace=wrap;html=1;" vertex="1" parent="1">
          <mxGeometry x="670" y="490" width="120" height="60" as="geometry" />
        </mxCell>
        <mxCell id="d8GLqu3ckTgXkkGwZRYU-17" value="Text/Forms" style="rounded=0;whiteSpace=wrap;html=1;" vertex="1" parent="1">
          <mxGeometry x="840" y="350" width="120" height="60" as="geometry" />
        </mxCell>
        <mxCell id="d8GLqu3ckTgXkkGwZRYU-18" value="Images" style="rounded=0;whiteSpace=wrap;html=1;" vertex="1" parent="1">
          <mxGeometry x="840" y="430" width="120" height="60" as="geometry" />
        </mxCell>
        <mxCell id="d8GLqu3ckTgXkkGwZRYU-21" value="Effects (Spells/stuff that makes map shapes)" style="rounded=0;whiteSpace=wrap;html=1;" vertex="1" parent="1">
          <mxGeometry x="670" y="590" width="120" height="60" as="geometry" />
        </mxCell>
        <mxCell id="d8GLqu3ckTgXkkGwZRYU-53" style="edgeStyle=orthogonalEdgeStyle;rounded=0;orthogonalLoop=1;jettySize=auto;html=1;exitX=0;exitY=0.5;exitDx=0;exitDy=0;entryX=0.25;entryY=0;entryDx=0;entryDy=0;" edge="1" parent="1" source="d8GLqu3ckTgXkkGwZRYU-28" target="d8GLqu3ckTgXkkGwZRYU-44">
          <mxGeometry relative="1" as="geometry" />
        </mxCell>
        <mxCell id="d8GLqu3ckTgXkkGwZRYU-54" style="edgeStyle=orthogonalEdgeStyle;rounded=0;orthogonalLoop=1;jettySize=auto;html=1;exitX=1;exitY=0.5;exitDx=0;exitDy=0;entryX=0.75;entryY=0;entryDx=0;entryDy=0;" edge="1" parent="1" source="d8GLqu3ckTgXkkGwZRYU-28" target="d8GLqu3ckTgXkkGwZRYU-50">
          <mxGeometry relative="1" as="geometry" />
        </mxCell>
        <mxCell id="d8GLqu3ckTgXkkGwZRYU-28" value="Plugins" style="rounded=0;whiteSpace=wrap;html=1;" vertex="1" parent="1">
          <mxGeometry x="1155" y="10" width="120" height="60" as="geometry" />
        </mxCell>
        <mxCell id="d8GLqu3ckTgXkkGwZRYU-31" style="edgeStyle=orthogonalEdgeStyle;rounded=0;orthogonalLoop=1;jettySize=auto;html=1;exitX=0;exitY=0.5;exitDx=0;exitDy=0;entryX=1;entryY=0.5;entryDx=0;entryDy=0;" edge="1" parent="1" source="d8GLqu3ckTgXkkGwZRYU-29" target="d8GLqu3ckTgXkkGwZRYU-13">
          <mxGeometry relative="1" as="geometry" />
        </mxCell>
        <mxCell id="d8GLqu3ckTgXkkGwZRYU-29" value="Character Sheets" style="rounded=0;whiteSpace=wrap;html=1;" vertex="1" parent="1">
          <mxGeometry x="970" y="190" width="120" height="60" as="geometry" />
        </mxCell>
        <mxCell id="d8GLqu3ckTgXkkGwZRYU-39" style="edgeStyle=orthogonalEdgeStyle;rounded=0;orthogonalLoop=1;jettySize=auto;html=1;exitX=0;exitY=0.5;exitDx=0;exitDy=0;entryX=1;entryY=0.5;entryDx=0;entryDy=0;" edge="1" parent="1" source="d8GLqu3ckTgXkkGwZRYU-32" target="d8GLqu3ckTgXkkGwZRYU-14">
          <mxGeometry relative="1" as="geometry" />
        </mxCell>
        <mxCell id="d8GLqu3ckTgXkkGwZRYU-32" value="Stat Templates" style="rounded=0;whiteSpace=wrap;html=1;" vertex="1" parent="1">
          <mxGeometry x="970" y="290" width="120" height="60" as="geometry" />
        </mxCell>
        <mxCell id="d8GLqu3ckTgXkkGwZRYU-38" style="edgeStyle=orthogonalEdgeStyle;rounded=0;orthogonalLoop=1;jettySize=auto;html=1;exitX=0;exitY=0.5;exitDx=0;exitDy=0;entryX=1;entryY=0.5;entryDx=0;entryDy=0;" edge="1" parent="1" source="d8GLqu3ckTgXkkGwZRYU-33" target="d8GLqu3ckTgXkkGwZRYU-15">
          <mxGeometry relative="1" as="geometry" />
        </mxCell>
        <mxCell id="d8GLqu3ckTgXkkGwZRYU-33" value="Article Templates" style="rounded=0;whiteSpace=wrap;html=1;" vertex="1" parent="1">
          <mxGeometry x="970" y="390" width="120" height="60" as="geometry" />
        </mxCell>
        <mxCell id="d8GLqu3ckTgXkkGwZRYU-36" style="edgeStyle=orthogonalEdgeStyle;rounded=0;orthogonalLoop=1;jettySize=auto;html=1;exitX=0;exitY=0.5;exitDx=0;exitDy=0;entryX=1;entryY=0.5;entryDx=0;entryDy=0;" edge="1" parent="1" source="d8GLqu3ckTgXkkGwZRYU-34" target="d8GLqu3ckTgXkkGwZRYU-16">
          <mxGeometry relative="1" as="geometry" />
        </mxCell>
        <mxCell id="d8GLqu3ckTgXkkGwZRYU-34" value="RNG Selections" style="rounded=0;whiteSpace=wrap;html=1;" vertex="1" parent="1">
          <mxGeometry x="970" y="490" width="120" height="60" as="geometry" />
        </mxCell>
        <mxCell id="d8GLqu3ckTgXkkGwZRYU-37" style="edgeStyle=orthogonalEdgeStyle;rounded=0;orthogonalLoop=1;jettySize=auto;html=1;exitX=0;exitY=0.5;exitDx=0;exitDy=0;entryX=1;entryY=0.5;entryDx=0;entryDy=0;" edge="1" parent="1" source="d8GLqu3ckTgXkkGwZRYU-35" target="d8GLqu3ckTgXkkGwZRYU-21">
          <mxGeometry relative="1" as="geometry" />
        </mxCell>
        <mxCell id="d8GLqu3ckTgXkkGwZRYU-35" value="Effect Templates" style="rounded=0;whiteSpace=wrap;html=1;" vertex="1" parent="1">
          <mxGeometry x="970" y="590" width="120" height="60" as="geometry" />
        </mxCell>
        <mxCell id="d8GLqu3ckTgXkkGwZRYU-45" style="edgeStyle=orthogonalEdgeStyle;rounded=0;orthogonalLoop=1;jettySize=auto;html=1;exitX=0.5;exitY=1;exitDx=0;exitDy=0;entryX=1;entryY=0.5;entryDx=0;entryDy=0;" edge="1" parent="1" source="d8GLqu3ckTgXkkGwZRYU-44" target="d8GLqu3ckTgXkkGwZRYU-29">
          <mxGeometry relative="1" as="geometry" />
        </mxCell>
        <mxCell id="d8GLqu3ckTgXkkGwZRYU-46" style="edgeStyle=orthogonalEdgeStyle;rounded=0;orthogonalLoop=1;jettySize=auto;html=1;exitX=0.5;exitY=1;exitDx=0;exitDy=0;entryX=1;entryY=0.5;entryDx=0;entryDy=0;" edge="1" parent="1" source="d8GLqu3ckTgXkkGwZRYU-44" target="d8GLqu3ckTgXkkGwZRYU-32">
          <mxGeometry relative="1" as="geometry" />
        </mxCell>
        <mxCell id="d8GLqu3ckTgXkkGwZRYU-47" style="edgeStyle=orthogonalEdgeStyle;rounded=0;orthogonalLoop=1;jettySize=auto;html=1;exitX=0.5;exitY=1;exitDx=0;exitDy=0;entryX=1;entryY=0.5;entryDx=0;entryDy=0;" edge="1" parent="1" source="d8GLqu3ckTgXkkGwZRYU-44" target="d8GLqu3ckTgXkkGwZRYU-33">
          <mxGeometry relative="1" as="geometry" />
        </mxCell>
        <mxCell id="d8GLqu3ckTgXkkGwZRYU-48" style="edgeStyle=orthogonalEdgeStyle;rounded=0;orthogonalLoop=1;jettySize=auto;html=1;exitX=0.5;exitY=1;exitDx=0;exitDy=0;entryX=1;entryY=0.5;entryDx=0;entryDy=0;" edge="1" parent="1" source="d8GLqu3ckTgXkkGwZRYU-44" target="d8GLqu3ckTgXkkGwZRYU-34">
          <mxGeometry relative="1" as="geometry" />
        </mxCell>
        <mxCell id="d8GLqu3ckTgXkkGwZRYU-49" style="edgeStyle=orthogonalEdgeStyle;rounded=0;orthogonalLoop=1;jettySize=auto;html=1;exitX=0.5;exitY=1;exitDx=0;exitDy=0;entryX=1;entryY=0.5;entryDx=0;entryDy=0;" edge="1" parent="1" source="d8GLqu3ckTgXkkGwZRYU-44" target="d8GLqu3ckTgXkkGwZRYU-35">
          <mxGeometry relative="1" as="geometry" />
        </mxCell>
        <mxCell id="d8GLqu3ckTgXkkGwZRYU-44" value="Project Plugins" style="rounded=0;whiteSpace=wrap;html=1;" vertex="1" parent="1">
          <mxGeometry x="1090" y="110" width="120" height="60" as="geometry" />
        </mxCell>
        <mxCell id="d8GLqu3ckTgXkkGwZRYU-52" style="edgeStyle=orthogonalEdgeStyle;rounded=0;orthogonalLoop=1;jettySize=auto;html=1;exitX=0.5;exitY=1;exitDx=0;exitDy=0;entryX=0;entryY=0.5;entryDx=0;entryDy=0;" edge="1" parent="1" source="d8GLqu3ckTgXkkGwZRYU-50" target="d8GLqu3ckTgXkkGwZRYU-51">
          <mxGeometry relative="1" as="geometry" />
        </mxCell>
        <mxCell id="d8GLqu3ckTgXkkGwZRYU-50" value="Server Plugins" style="rounded=0;whiteSpace=wrap;html=1;dashed=1;" vertex="1" parent="1">
          <mxGeometry x="1230" y="110" width="120" height="60" as="geometry" />
        </mxCell>
        <mxCell id="d8GLqu3ckTgXkkGwZRYU-51" value="Authentication" style="rounded=0;whiteSpace=wrap;html=1;dashed=1;" vertex="1" parent="1">
          <mxGeometry x="1350" y="190" width="120" height="60" as="geometry" />
        </mxCell>
      </root>
    </mxGraphModel>
  </diagram>
</mxfile>
